<svg xmlns="http://www.w3.org/2000/svg" width="1674" height="1674" viewBox="0 0 1674 1674" version="1.1"><path d="M 844.637 174.089 C 786.397 177.420, 736.501 186.403, 678.500 203.999 C 622.315 221.044, 559.023 251.210, 508.323 285.109 C 466.621 312.992, 438.286 336.367, 402.500 372.409 C 368.006 407.151, 343.980 436.880, 316.764 478.500 C 299.112 505.495, 288.352 524.525, 275.216 551.980 C 253.037 598.334, 240.127 634.279, 227.621 684.500 C 203.240 782.406, 201.852 888.634, 223.668 987 C 228.898 1010.582, 238.536 1044.833, 245.997 1066.353 C 257.517 1099.579, 278.811 1146.163, 297.345 1178.688 L 301.500 1185.979 308.500 1185.998 C 312.350 1186.008, 366.350 1184.199, 428.500 1181.976 C 490.650 1179.754, 569.815 1176.938, 604.422 1175.718 L 667.344 1173.500 676.141 1154.500 L 684.937 1135.500 682.747 1134 C 649.694 1111.363, 625.035 1088.792, 597.594 1056.056 C 571.386 1024.791, 560.127 1008.629, 546.659 982.943 C 526.867 945.194, 511.943 893.440, 507.483 847.089 C 497.724 745.668, 536.449 617.534, 604.071 527.500 C 618.528 508.252, 631.867 493.028, 651.447 473.429 C 682.044 442.803, 706.250 423.900, 743.500 401.541 C 756.158 393.944, 794.271 374.531, 804.265 370.591 C 820.950 364.014, 863.681 353.091, 884.500 350.081 C 919.806 344.978, 964.528 342.404, 998.763 343.507 L 1021.025 344.223 1018.775 347.862 C 1002.767 373.740, 983.557 420.198, 972.016 460.942 C 970.267 467.117, 969.030 472.363, 969.266 472.599 C 969.503 472.836, 974.602 470.244, 980.598 466.839 C 1023.301 442.591, 1085.358 418.559, 1142.806 404.023 C 1206.688 387.859, 1276.007 377.687, 1331.716 376.302 C 1351.647 375.807, 1355.798 375.461, 1355.175 374.348 C 1353.432 371.234, 1329.917 347.316, 1320.108 338.681 C 1269.143 293.812, 1206.026 254.342, 1141 226.674 C 1099.653 209.082, 1056.171 195.625, 1009.788 186.066 C 960.148 175.836, 895.752 171.166, 844.637 174.089 M 862.500 426.966 C 845.255 431.386, 823.806 439.963, 801 451.557 C 749.231 477.875, 686.482 535.127, 650.233 589.116 C 619.658 634.655, 604.800 674.875, 597.816 731 C 594.658 756.384, 594.630 795.690, 597.757 816.013 C 601.703 841.668, 610.923 876.223, 619.500 897.500 C 631.096 926.270, 652.285 958.188, 675 981.101 C 694.023 1000.290, 712.233 1012.587, 737.786 1023.500 C 752.095 1029.611, 759.301 1031.395, 786 1035.432 C 814.491 1039.740, 875.149 1043.064, 896.884 1041.508 L 907.039 1040.781 900.160 1036.043 C 845.297 998.248, 796.267 942.021, 768.016 884.500 C 748.399 844.557, 738.953 810.645, 735.895 769.168 C 732.764 726.714, 740.079 665.560, 753.676 620.521 C 765.955 579.848, 785.087 537.952, 805.517 507 C 824.660 477.997, 835.856 464.320, 863.435 436.250 C 870.054 429.512, 875.027 424.033, 874.485 424.073 C 873.943 424.113, 868.550 425.415, 862.500 426.966 M 789.418 737.250 C 790.822 757.702, 797.674 788.115, 807.724 818.500 C 819.734 854.812, 847.843 901.650, 879.306 937.777 C 908.625 971.442, 958.744 1012.232, 983.500 1022.577 C 992.009 1026.132, 993.210 1026.361, 1005.500 1026.768 C 1028.188 1027.520, 1053.126 1022.702, 1087.621 1010.903 C 1108.578 1003.734, 1121.010 998.499, 1142.383 987.843 C 1160.631 978.744, 1184.733 964.744, 1183.090 964.197 C 1182.490 963.997, 1173.562 964.619, 1163.250 965.579 C 1099.444 971.520, 1053.240 963.585, 993.851 936.489 C 920.783 903.150, 876.588 870.955, 838.063 823 C 826.785 808.962, 816.160 793.266, 811.055 783.102 C 806.045 773.126, 796.995 750.124, 793.014 737.250 C 791.271 731.612, 789.590 727, 789.279 727 C 788.968 727, 789.031 731.612, 789.418 737.250 M 1266.500 952.155 C 1259.923 955.752, 1260.329 960.867, 1268.132 972.700 C 1271.505 977.815, 1274.581 982, 1274.967 982 C 1276.758 982, 1415.705 1002.096, 1417.224 1002.575 C 1420.286 1003.540, 1423 1008.043, 1423 1012.159 C 1423 1014.298, 1408.612 1114.873, 1391.027 1235.658 C 1368.583 1389.814, 1358.583 1455.987, 1357.474 1457.680 C 1354.621 1462.035, 1352.142 1462.456, 1339.774 1460.688 C 1313.405 1456.920, 1192.346 1439.869, 1190.703 1439.693 C 1189.344 1439.547, 1187.148 1442.834, 1181.703 1453.162 C 1177.741 1460.676, 1174.725 1467.045, 1175 1467.316 C 1175.275 1467.587, 1180.225 1468.513, 1186 1469.374 C 1191.775 1470.234, 1202.575 1471.870, 1210 1473.009 C 1217.425 1474.147, 1226.425 1475.480, 1230 1475.971 C 1238.912 1477.195, 1254.872 1479.543, 1271 1482.002 C 1278.425 1483.134, 1292.150 1485.176, 1301.500 1486.540 C 1310.850 1487.904, 1324.350 1489.918, 1331.500 1491.017 C 1366.068 1496.326, 1368.396 1496.444, 1375.018 1493.223 C 1381.922 1489.865, 1384.574 1484.777, 1386.904 1470.419 C 1388.888 1458.191, 1389.544 1453.818, 1402.484 1366.500 C 1406.642 1338.450, 1410.922 1309.650, 1411.998 1302.500 C 1419.021 1255.794, 1426.213 1207.341, 1428.548 1191 C 1429.373 1185.225, 1430.486 1177.800, 1431.021 1174.500 C 1432.061 1168.080, 1436.582 1137.635, 1446.984 1067 C 1447.510 1063.425, 1448.874 1054.425, 1450.015 1047 C 1452.386 1031.565, 1453.068 1026.780, 1455.590 1007.900 C 1457.615 992.736, 1457.102 988.651, 1452.480 983.158 C 1447.303 977.006, 1447.143 976.969, 1389.500 968.471 C 1372.450 965.957, 1349.725 962.584, 1339 960.975 C 1265.092 949.887, 1269.636 950.440, 1266.500 952.155 M 1293.243 1011.105 C 1296.236 1015.722, 1311.676 1039.300, 1327.554 1063.500 L 1356.424 1107.500 1356.435 1114 L 1356.446 1120.500 1277.723 1270.296 C 1234.425 1352.684, 1199 1420.447, 1199 1420.880 C 1199 1421.565, 1341.118 1442.191, 1341.731 1441.596 C 1341.858 1441.473, 1348.739 1394.825, 1357.023 1337.936 C 1371.017 1241.830, 1385.868 1139.874, 1397.959 1056.909 C 1400.732 1037.884, 1403 1021.650, 1403 1020.832 C 1403 1019.630, 1392.534 1017.859, 1348.250 1011.565 C 1318.138 1007.286, 1292.218 1003.543, 1290.651 1003.247 L 1287.801 1002.710 1293.243 1011.105 M 1118.068 1044.904 C 1115.507 1048.502, 1115.561 1052.100, 1118.341 1062.850 L 1120.500 1071.201 1184.253 1106.350 C 1221.375 1126.817, 1248.673 1142.466, 1249.603 1143.812 C 1250.481 1145.083, 1251.200 1147.629, 1251.200 1149.469 C 1251.200 1152.026, 1225.791 1199.151, 1143.350 1349.497 C 1027.642 1560.510, 1033.843 1549.932, 1026.595 1548.674 C 1024.224 1548.263, 897.788 1479.542, 887.341 1472.987 C 885.319 1471.718, 884.418 1472.328, 873.182 1482.566 C 866.583 1488.580, 861.142 1493.795, 861.092 1494.155 C 861.041 1494.515, 869.438 1499.351, 879.750 1504.903 C 890.063 1510.455, 901.200 1516.487, 904.500 1518.307 C 907.800 1520.127, 920.400 1526.952, 932.500 1533.473 C 944.600 1539.994, 956.300 1546.315, 958.500 1547.520 C 960.700 1548.724, 965.982 1551.593, 970.238 1553.895 C 990.667 1564.941, 999.136 1569.555, 1006.500 1573.649 C 1025.616 1584.277, 1032.404 1587.143, 1038.459 1587.143 C 1048.447 1587.143, 1052.603 1583.244, 1062.395 1564.692 C 1065.532 1558.748, 1068.902 1552.448, 1069.882 1550.692 C 1075.203 1541.167, 1087.242 1519.106, 1093.725 1507 C 1105.649 1484.735, 1125.455 1448.105, 1126.978 1445.500 C 1127.942 1443.850, 1130.303 1439.575, 1132.223 1436 C 1141.531 1418.670, 1157.560 1388.958, 1160.006 1384.500 C 1161.514 1381.750, 1165.664 1374.100, 1169.226 1367.500 C 1190.810 1327.513, 1196.415 1317.185, 1197.986 1314.500 C 1198.951 1312.850, 1201.665 1307.900, 1204.016 1303.500 C 1208.176 1295.716, 1209.251 1293.718, 1217.728 1278 C 1223.288 1267.690, 1246.647 1224.634, 1250.008 1218.500 C 1251.515 1215.750, 1256.010 1207.425, 1259.998 1200 C 1263.986 1192.575, 1268.260 1184.700, 1269.496 1182.500 C 1271.851 1178.309, 1277.710 1167.394, 1284.030 1155.426 C 1288.557 1146.852, 1289.642 1141.363, 1287.981 1135.433 C 1286.270 1129.319, 1280.164 1124.173, 1265 1116.061 C 1253.559 1109.940, 1246.182 1105.961, 1231 1097.724 C 1227.975 1096.083, 1222.800 1093.280, 1219.500 1091.496 C 1213.672 1088.346, 1197.006 1079.300, 1161 1059.744 C 1151.375 1054.517, 1140.067 1048.386, 1135.872 1046.120 C 1126.204 1040.898, 1121.166 1040.554, 1118.068 1044.904 M 781.727 1067.093 C 780.752 1067.661, 777.485 1073.049, 774.467 1079.067 L 768.979 1090.008 795.141 1156.754 C 811.013 1197.245, 821.333 1224.908, 821.379 1227.079 C 821.541 1234.771, 834.942 1229.075, 609.854 1316.990 C 495.260 1361.748, 400.484 1398.564, 399.242 1398.802 C 395.500 1399.521, 391.042 1397.013, 389.119 1393.107 C 388.143 1391.123, 374.779 1356.946, 359.422 1317.157 L 331.500 1244.814 315.754 1245.236 C 307.094 1245.468, 299.750 1245.917, 299.434 1246.233 C 298.911 1246.756, 302.174 1256.015, 305.530 1263.527 C 306.273 1265.191, 308.090 1269.916, 309.566 1274.027 C 311.042 1278.137, 313.059 1283.300, 314.047 1285.500 C 315.035 1287.700, 317.423 1293.550, 319.354 1298.500 C 321.285 1303.450, 325.410 1314.025, 328.521 1322 C 331.632 1329.975, 334.775 1337.850, 335.507 1339.500 C 336.238 1341.150, 337.604 1344.525, 338.543 1347 C 339.482 1349.475, 344.511 1362.300, 349.719 1375.500 C 371.648 1431.079, 371.243 1430.281, 379.500 1434.104 C 387.083 1437.615, 388.747 1437.208, 424 1423.240 C 481.155 1400.594, 563.113 1368.194, 575.500 1363.348 C 583.200 1360.335, 601.875 1352.971, 617 1346.982 C 632.125 1340.994, 663.400 1328.630, 686.500 1319.507 C 746.814 1295.686, 774.544 1284.723, 808 1271.469 C 824.225 1265.041, 839.192 1259.174, 841.261 1258.432 C 847.343 1256.247, 853.864 1251.186, 856.006 1246.987 C 859.725 1239.698, 858.869 1234.124, 851.054 1214.733 C 840.306 1188.065, 819.347 1134.788, 818.508 1132 C 818.094 1130.625, 817.421 1129.050, 817.013 1128.500 C 816.604 1127.950, 814.818 1123.675, 813.043 1119 C 807.700 1104.928, 799.060 1082.887, 796.383 1076.500 C 792.430 1067.067, 791.493 1065.996, 787.227 1066.030 C 785.177 1066.047, 782.702 1066.525, 781.727 1067.093 M 948.589 1083.077 C 947.165 1084.769, 945.984 1086.906, 945.964 1087.827 C 945.944 1088.747, 945.341 1093.956, 944.623 1099.402 L 943.317 1109.304 988.909 1160.911 C 1045.562 1225.039, 1040 1218.216, 1040 1223.591 C 1040 1227.232, 1039.416 1228.642, 1036.750 1231.439 C 1034.963 1233.314, 981.525 1281.092, 918 1337.613 C 854.475 1394.133, 780.502 1459.980, 753.616 1483.939 C 726.730 1507.897, 703.780 1528.047, 702.616 1528.715 C 696.546 1532.199, 693.109 1530.052, 679.231 1514.106 C 614.646 1439.901, 584.698 1406, 583.728 1406 C 582.639 1406, 555.965 1416.812, 555.096 1417.606 C 554.782 1417.892, 567.474 1432.683, 570.022 1435 C 570.614 1435.538, 591.796 1459.573, 595.974 1464.447 C 597.363 1466.068, 600.977 1470.118, 604.004 1473.447 C 607.032 1476.776, 618.053 1489.175, 628.497 1501 C 650.976 1526.453, 653.175 1528.935, 654.543 1530.390 C 655.116 1531.001, 660.710 1537.350, 666.973 1544.500 C 673.236 1551.650, 680.123 1559.141, 682.277 1561.147 C 689.909 1568.255, 699.653 1568.646, 708.711 1562.205 C 713.008 1559.150, 741.421 1534.622, 747.100 1529.065 C 748.934 1527.271, 748.057 1528.052, 778.500 1501.093 C 791.150 1489.891, 803.565 1478.875, 806.089 1476.613 C 808.613 1474.351, 812.213 1471.177, 814.089 1469.561 C 815.965 1467.944, 821.571 1462.994, 826.547 1458.561 C 831.523 1454.127, 839.155 1447.350, 843.506 1443.500 C 847.858 1439.650, 852.129 1435.825, 852.998 1435 C 853.867 1434.175, 856.360 1431.973, 858.539 1430.108 C 860.717 1428.242, 866.100 1423.478, 870.500 1419.521 C 874.900 1415.564, 882.815 1408.540, 888.089 1403.913 C 910.745 1384.035, 930.536 1366.543, 931 1365.988 C 931.459 1365.439, 951.422 1347.742, 974.913 1327.060 C 987.687 1315.814, 1009.713 1296.283, 1019 1287.969 C 1023.125 1284.275, 1036.625 1272.259, 1049 1261.266 C 1074.720 1238.417, 1075.360 1237.775, 1077.452 1232.768 C 1080.763 1224.844, 1078.353 1216.181, 1070.421 1207.500 C 1064.382 1200.890, 1054.903 1190.241, 1042.876 1176.556 C 1036.619 1169.437, 1025.425 1156.819, 1018 1148.517 C 1010.575 1140.214, 1001.575 1130.086, 998 1126.010 C 994.425 1121.934, 987.675 1114.275, 983 1108.991 C 978.325 1103.707, 971.575 1096.052, 968 1091.980 C 964.425 1087.908, 960.422 1083.547, 959.104 1082.288 C 955.689 1079.027, 951.748 1079.323, 948.589 1083.077 M 1127.056 1099.755 C 1127.525 1101.842, 1134.028 1129.618, 1141.508 1161.479 C 1151.917 1205.821, 1154.958 1220.286, 1154.474 1223.154 C 1153.770 1227.320, 1151.859 1229.207, 1108.461 1268.592 C 1060.033 1312.541, 929.250 1431.636, 924 1436.566 C 920.975 1439.407, 914.330 1445.460, 909.233 1450.016 C 904.136 1454.572, 900.086 1458.418, 900.233 1458.563 C 900.380 1458.708, 928.391 1474.150, 962.480 1492.878 C 1004.700 1516.074, 1024.668 1526.543, 1025.114 1525.715 C 1025.876 1524.302, 1111.928 1367.407, 1181.136 1241.248 C 1207.461 1193.259, 1228.997 1153.659, 1228.993 1153.248 C 1228.987 1152.670, 1167.721 1118.476, 1131.352 1098.752 L 1126.204 1095.960 1127.056 1099.755 M 746.593 1134.234 C 740.648 1145.930, 728.439 1170.125, 719.463 1188 C 709.354 1208.130, 701.901 1221.764, 699.882 1223.822 C 693.838 1229.981, 696.208 1229.593, 653 1231.495 C 647.225 1231.749, 635.975 1232.198, 628 1232.493 C 620.025 1232.788, 608.775 1233.241, 603 1233.501 C 597.225 1233.761, 585.975 1234.213, 578 1234.506 C 570.025 1234.798, 559.225 1235.244, 554 1235.496 C 548.775 1235.747, 538.200 1236.194, 530.500 1236.488 C 512.526 1237.173, 470.976 1238.826, 455.500 1239.470 C 448.900 1239.745, 437.200 1240.210, 429.500 1240.504 C 421.800 1240.798, 411.900 1241.244, 407.500 1241.494 C 403.100 1241.745, 390.275 1242.237, 379 1242.589 C 367.725 1242.940, 356.913 1243.514, 354.972 1243.864 L 351.444 1244.500 376.972 1310.174 C 391.013 1346.295, 402.796 1376.140, 403.157 1376.498 C 403.518 1376.855, 423.318 1369.526, 447.157 1360.210 C 470.996 1350.894, 560.025 1316.141, 645 1282.980 C 729.975 1249.818, 799.671 1222.548, 799.880 1222.380 C 800.213 1222.111, 759.768 1117.520, 758.060 1114.234 C 757.682 1113.505, 752.813 1121.997, 746.593 1134.234 M 938.630 1149.685 C 937.006 1163.830, 935.485 1176.639, 930.934 1214.500 C 925.866 1256.650, 924.378 1263.216, 919 1267.142 C 916.619 1268.881, 900.898 1275.456, 813 1311.480 C 791.825 1320.158, 755.375 1335.110, 732 1344.706 C 708.625 1354.302, 682.300 1365.106, 673.500 1368.715 C 664.700 1372.323, 652.325 1377.399, 646 1379.995 C 639.675 1382.590, 627.525 1387.564, 619 1391.048 C 610.475 1394.532, 603.354 1397.481, 603.175 1397.600 C 602.683 1397.929, 698.122 1507.006, 698.860 1506.959 C 699.212 1506.936, 718.259 1490.174, 741.186 1469.709 C 764.114 1449.244, 835.745 1385.475, 900.366 1328 C 964.988 1270.525, 1017.891 1223.242, 1017.930 1222.926 C 1017.998 1222.372, 948.645 1143.394, 943.077 1137.685 L 940.331 1134.870 938.630 1149.685" stroke="none" fill="#fbfbfb" fill-rule="evenodd"/><path d="M -0 837.001 L -0 1674.001 837.250 1673.751 L 1674.500 1673.500 1674.751 836.750 L 1675.001 -0 837.501 -0 L 0 0 -0 837.001 M 0.498 837.500 C 0.498 1297.850, 0.611 1486.325, 0.750 1256.332 C 0.889 1026.340, 0.889 649.690, 0.750 419.332 C 0.611 188.975, 0.498 377.150, 0.498 837.500 M 844.637 174.089 C 786.397 177.420, 736.501 186.403, 678.500 203.999 C 622.315 221.044, 559.023 251.210, 508.323 285.109 C 466.621 312.992, 438.286 336.367, 402.500 372.409 C 368.006 407.151, 343.980 436.880, 316.764 478.500 C 299.112 505.495, 288.352 524.525, 275.216 551.980 C 253.037 598.334, 240.127 634.279, 227.621 684.500 C 203.240 782.406, 201.852 888.634, 223.668 987 C 228.898 1010.582, 238.536 1044.833, 245.997 1066.353 C 257.517 1099.579, 278.811 1146.163, 297.345 1178.688 L 301.500 1185.979 308.500 1185.998 C 312.350 1186.008, 366.350 1184.199, 428.500 1181.976 C 490.650 1179.754, 569.815 1176.938, 604.422 1175.718 L 667.344 1173.500 676.141 1154.500 L 684.937 1135.500 682.747 1134 C 649.694 1111.363, 625.035 1088.792, 597.594 1056.056 C 571.386 1024.791, 560.127 1008.629, 546.659 982.943 C 526.867 945.194, 511.943 893.440, 507.483 847.089 C 497.724 745.668, 536.449 617.534, 604.071 527.500 C 618.528 508.252, 631.867 493.028, 651.447 473.429 C 682.044 442.803, 706.250 423.900, 743.500 401.541 C 756.158 393.944, 794.271 374.531, 804.265 370.591 C 820.950 364.014, 863.681 353.091, 884.500 350.081 C 919.806 344.978, 964.528 342.404, 998.763 343.507 L 1021.025 344.223 1018.775 347.862 C 1002.767 373.740, 983.557 420.198, 972.016 460.942 C 970.267 467.117, 969.030 472.363, 969.266 472.599 C 969.503 472.836, 974.602 470.244, 980.598 466.839 C 1023.301 442.591, 1085.358 418.559, 1142.806 404.023 C 1206.688 387.859, 1276.007 377.687, 1331.716 376.302 C 1351.647 375.807, 1355.798 375.461, 1355.175 374.348 C 1353.432 371.234, 1329.917 347.316, 1320.108 338.681 C 1269.143 293.812, 1206.026 254.342, 1141 226.674 C 1099.653 209.082, 1056.171 195.625, 1009.788 186.066 C 960.148 175.836, 895.752 171.166, 844.637 174.089 M 862.500 426.966 C 845.255 431.386, 823.806 439.963, 801 451.557 C 749.231 477.875, 686.482 535.127, 650.233 589.116 C 619.658 634.655, 604.800 674.875, 597.816 731 C 594.658 756.384, 594.630 795.690, 597.757 816.013 C 601.703 841.668, 610.923 876.223, 619.500 897.500 C 631.096 926.270, 652.285 958.188, 675 981.101 C 694.023 1000.290, 712.233 1012.587, 737.786 1023.500 C 752.095 1029.611, 759.301 1031.395, 786 1035.432 C 814.491 1039.740, 875.149 1043.064, 896.884 1041.508 L 907.039 1040.781 900.160 1036.043 C 845.297 998.248, 796.267 942.021, 768.016 884.500 C 748.399 844.557, 738.953 810.645, 735.895 769.168 C 732.764 726.714, 740.079 665.560, 753.676 620.521 C 765.955 579.848, 785.087 537.952, 805.517 507 C 824.660 477.997, 835.856 464.320, 863.435 436.250 C 870.054 429.512, 875.027 424.033, 874.485 424.073 C 873.943 424.113, 868.550 425.415, 862.500 426.966 M 789.418 737.250 C 790.822 757.702, 797.674 788.115, 807.724 818.500 C 819.734 854.812, 847.843 901.650, 879.306 937.777 C 908.625 971.442, 958.744 1012.232, 983.500 1022.577 C 992.009 1026.132, 993.210 1026.361, 1005.500 1026.768 C 1028.188 1027.520, 1053.126 1022.702, 1087.621 1010.903 C 1108.578 1003.734, 1121.010 998.499, 1142.383 987.843 C 1160.631 978.744, 1184.733 964.744, 1183.090 964.197 C 1182.490 963.997, 1173.562 964.619, 1163.250 965.579 C 1099.444 971.520, 1053.240 963.585, 993.851 936.489 C 920.783 903.150, 876.588 870.955, 838.063 823 C 826.785 808.962, 816.160 793.266, 811.055 783.102 C 806.045 773.126, 796.995 750.124, 793.014 737.250 C 791.271 731.612, 789.590 727, 789.279 727 C 788.968 727, 789.031 731.612, 789.418 737.250 M 1266.500 952.155 C 1259.923 955.752, 1260.329 960.867, 1268.132 972.700 C 1271.505 977.815, 1274.581 982, 1274.967 982 C 1276.758 982, 1415.705 1002.096, 1417.224 1002.575 C 1420.286 1003.540, 1423 1008.043, 1423 1012.159 C 1423 1014.298, 1408.612 1114.873, 1391.027 1235.658 C 1368.583 1389.814, 1358.583 1455.987, 1357.474 1457.680 C 1354.621 1462.035, 1352.142 1462.456, 1339.774 1460.688 C 1313.405 1456.920, 1192.346 1439.869, 1190.703 1439.693 C 1189.344 1439.547, 1187.148 1442.834, 1181.703 1453.162 C 1177.741 1460.676, 1174.725 1467.045, 1175 1467.316 C 1175.275 1467.587, 1180.225 1468.513, 1186 1469.374 C 1191.775 1470.234, 1202.575 1471.870, 1210 1473.009 C 1217.425 1474.147, 1226.425 1475.480, 1230 1475.971 C 1238.912 1477.195, 1254.872 1479.543, 1271 1482.002 C 1278.425 1483.134, 1292.150 1485.176, 1301.500 1486.540 C 1310.850 1487.904, 1324.350 1489.918, 1331.500 1491.017 C 1366.068 1496.326, 1368.396 1496.444, 1375.018 1493.223 C 1381.922 1489.865, 1384.574 1484.777, 1386.904 1470.419 C 1388.888 1458.191, 1389.544 1453.818, 1402.484 1366.500 C 1406.642 1338.450, 1410.922 1309.650, 1411.998 1302.500 C 1419.021 1255.794, 1426.213 1207.341, 1428.548 1191 C 1429.373 1185.225, 1430.486 1177.800, 1431.021 1174.500 C 1432.061 1168.080, 1436.582 1137.635, 1446.984 1067 C 1447.510 1063.425, 1448.874 1054.425, 1450.015 1047 C 1452.386 1031.565, 1453.068 1026.780, 1455.590 1007.900 C 1457.615 992.736, 1457.102 988.651, 1452.480 983.158 C 1447.303 977.006, 1447.143 976.969, 1389.500 968.471 C 1372.450 965.957, 1349.725 962.584, 1339 960.975 C 1265.092 949.887, 1269.636 950.440, 1266.500 952.155 M 1293.243 1011.105 C 1296.236 1015.722, 1311.676 1039.300, 1327.554 1063.500 L 1356.424 1107.500 1356.435 1114 L 1356.446 1120.500 1277.723 1270.296 C 1234.425 1352.684, 1199 1420.447, 1199 1420.880 C 1199 1421.565, 1341.118 1442.191, 1341.731 1441.596 C 1341.858 1441.473, 1348.739 1394.825, 1357.023 1337.936 C 1371.017 1241.830, 1385.868 1139.874, 1397.959 1056.909 C 1400.732 1037.884, 1403 1021.650, 1403 1020.832 C 1403 1019.630, 1392.534 1017.859, 1348.250 1011.565 C 1318.138 1007.286, 1292.218 1003.543, 1290.651 1003.247 L 1287.801 1002.710 1293.243 1011.105 M 1118.068 1044.904 C 1115.507 1048.502, 1115.561 1052.100, 1118.341 1062.850 L 1120.500 1071.201 1184.253 1106.350 C 1221.375 1126.817, 1248.673 1142.466, 1249.603 1143.812 C 1250.481 1145.083, 1251.200 1147.629, 1251.200 1149.469 C 1251.200 1152.026, 1225.791 1199.151, 1143.350 1349.497 C 1027.642 1560.510, 1033.843 1549.932, 1026.595 1548.674 C 1024.224 1548.263, 897.788 1479.542, 887.341 1472.987 C 885.319 1471.718, 884.418 1472.328, 873.182 1482.566 C 866.583 1488.580, 861.142 1493.795, 861.092 1494.155 C 861.041 1494.515, 869.438 1499.351, 879.750 1504.903 C 890.063 1510.455, 901.200 1516.487, 904.500 1518.307 C 907.800 1520.127, 920.400 1526.952, 932.500 1533.473 C 944.600 1539.994, 956.300 1546.315, 958.500 1547.520 C 960.700 1548.724, 965.982 1551.593, 970.238 1553.895 C 990.667 1564.941, 999.136 1569.555, 1006.500 1573.649 C 1025.616 1584.277, 1032.404 1587.143, 1038.459 1587.143 C 1048.447 1587.143, 1052.603 1583.244, 1062.395 1564.692 C 1065.532 1558.748, 1068.902 1552.448, 1069.882 1550.692 C 1075.203 1541.167, 1087.242 1519.106, 1093.725 1507 C 1105.649 1484.735, 1125.455 1448.105, 1126.978 1445.500 C 1127.942 1443.850, 1130.303 1439.575, 1132.223 1436 C 1141.531 1418.670, 1157.560 1388.958, 1160.006 1384.500 C 1161.514 1381.750, 1165.664 1374.100, 1169.226 1367.500 C 1190.810 1327.513, 1196.415 1317.185, 1197.986 1314.500 C 1198.951 1312.850, 1201.665 1307.900, 1204.016 1303.500 C 1208.176 1295.716, 1209.251 1293.718, 1217.728 1278 C 1223.288 1267.690, 1246.647 1224.634, 1250.008 1218.500 C 1251.515 1215.750, 1256.010 1207.425, 1259.998 1200 C 1263.986 1192.575, 1268.260 1184.700, 1269.496 1182.500 C 1271.851 1178.309, 1277.710 1167.394, 1284.030 1155.426 C 1288.557 1146.852, 1289.642 1141.363, 1287.981 1135.433 C 1286.270 1129.319, 1280.164 1124.173, 1265 1116.061 C 1253.559 1109.940, 1246.182 1105.961, 1231 1097.724 C 1227.975 1096.083, 1222.800 1093.280, 1219.500 1091.496 C 1213.672 1088.346, 1197.006 1079.300, 1161 1059.744 C 1151.375 1054.517, 1140.067 1048.386, 1135.872 1046.120 C 1126.204 1040.898, 1121.166 1040.554, 1118.068 1044.904 M 781.727 1067.093 C 780.752 1067.661, 777.485 1073.049, 774.467 1079.067 L 768.979 1090.008 795.141 1156.754 C 811.013 1197.245, 821.333 1224.908, 821.379 1227.079 C 821.541 1234.771, 834.942 1229.075, 609.854 1316.990 C 495.260 1361.748, 400.484 1398.564, 399.242 1398.802 C 395.500 1399.521, 391.042 1397.013, 389.119 1393.107 C 388.143 1391.123, 374.779 1356.946, 359.422 1317.157 L 331.500 1244.814 315.754 1245.236 C 307.094 1245.468, 299.750 1245.917, 299.434 1246.233 C 298.911 1246.756, 302.174 1256.015, 305.530 1263.527 C 306.273 1265.191, 308.090 1269.916, 309.566 1274.027 C 311.042 1278.137, 313.059 1283.300, 314.047 1285.500 C 315.035 1287.700, 317.423 1293.550, 319.354 1298.500 C 321.285 1303.450, 325.410 1314.025, 328.521 1322 C 331.632 1329.975, 334.775 1337.850, 335.507 1339.500 C 336.238 1341.150, 337.604 1344.525, 338.543 1347 C 339.482 1349.475, 344.511 1362.300, 349.719 1375.500 C 371.648 1431.079, 371.243 1430.281, 379.500 1434.104 C 387.083 1437.615, 388.747 1437.208, 424 1423.240 C 481.155 1400.594, 563.113 1368.194, 575.500 1363.348 C 583.200 1360.335, 601.875 1352.971, 617 1346.982 C 632.125 1340.994, 663.400 1328.630, 686.500 1319.507 C 746.814 1295.686, 774.544 1284.723, 808 1271.469 C 824.225 1265.041, 839.192 1259.174, 841.261 1258.432 C 847.343 1256.247, 853.864 1251.186, 856.006 1246.987 C 859.725 1239.698, 858.869 1234.124, 851.054 1214.733 C 840.306 1188.065, 819.347 1134.788, 818.508 1132 C 818.094 1130.625, 817.421 1129.050, 817.013 1128.500 C 816.604 1127.950, 814.818 1123.675, 813.043 1119 C 807.700 1104.928, 799.060 1082.887, 796.383 1076.500 C 792.430 1067.067, 791.493 1065.996, 787.227 1066.030 C 785.177 1066.047, 782.702 1066.525, 781.727 1067.093 M 948.589 1083.077 C 947.165 1084.769, 945.984 1086.906, 945.964 1087.827 C 945.944 1088.747, 945.341 1093.956, 944.623 1099.402 L 943.317 1109.304 988.909 1160.911 C 1045.562 1225.039, 1040 1218.216, 1040 1223.591 C 1040 1227.232, 1039.416 1228.642, 1036.750 1231.439 C 1034.963 1233.314, 981.525 1281.092, 918 1337.613 C 854.475 1394.133, 780.502 1459.980, 753.616 1483.939 C 726.730 1507.897, 703.780 1528.047, 702.616 1528.715 C 696.546 1532.199, 693.109 1530.052, 679.231 1514.106 C 614.646 1439.901, 584.698 1406, 583.728 1406 C 582.639 1406, 555.965 1416.812, 555.096 1417.606 C 554.782 1417.892, 567.474 1432.683, 570.022 1435 C 570.614 1435.538, 591.796 1459.573, 595.974 1464.447 C 597.363 1466.068, 600.977 1470.118, 604.004 1473.447 C 607.032 1476.776, 618.053 1489.175, 628.497 1501 C 650.976 1526.453, 653.175 1528.935, 654.543 1530.390 C 655.116 1531.001, 660.710 1537.350, 666.973 1544.500 C 673.236 1551.650, 680.123 1559.141, 682.277 1561.147 C 689.909 1568.255, 699.653 1568.646, 708.711 1562.205 C 713.008 1559.150, 741.421 1534.622, 747.100 1529.065 C 748.934 1527.271, 748.057 1528.052, 778.500 1501.093 C 791.150 1489.891, 803.565 1478.875, 806.089 1476.613 C 808.613 1474.351, 812.213 1471.177, 814.089 1469.561 C 815.965 1467.944, 821.571 1462.994, 826.547 1458.561 C 831.523 1454.127, 839.155 1447.350, 843.506 1443.500 C 847.858 1439.650, 852.129 1435.825, 852.998 1435 C 853.867 1434.175, 856.360 1431.973, 858.539 1430.108 C 860.717 1428.242, 866.100 1423.478, 870.500 1419.521 C 874.900 1415.564, 882.815 1408.540, 888.089 1403.913 C 910.745 1384.035, 930.536 1366.543, 931 1365.988 C 931.459 1365.439, 951.422 1347.742, 974.913 1327.060 C 987.687 1315.814, 1009.713 1296.283, 1019 1287.969 C 1023.125 1284.275, 1036.625 1272.259, 1049 1261.266 C 1074.720 1238.417, 1075.360 1237.775, 1077.452 1232.768 C 1080.763 1224.844, 1078.353 1216.181, 1070.421 1207.500 C 1064.382 1200.890, 1054.903 1190.241, 1042.876 1176.556 C 1036.619 1169.437, 1025.425 1156.819, 1018 1148.517 C 1010.575 1140.214, 1001.575 1130.086, 998 1126.010 C 994.425 1121.934, 987.675 1114.275, 983 1108.991 C 978.325 1103.707, 971.575 1096.052, 968 1091.980 C 964.425 1087.908, 960.422 1083.547, 959.104 1082.288 C 955.689 1079.027, 951.748 1079.323, 948.589 1083.077 M 1127.056 1099.755 C 1127.525 1101.842, 1134.028 1129.618, 1141.508 1161.479 C 1151.917 1205.821, 1154.958 1220.286, 1154.474 1223.154 C 1153.770 1227.320, 1151.859 1229.207, 1108.461 1268.592 C 1060.033 1312.541, 929.250 1431.636, 924 1436.566 C 920.975 1439.407, 914.330 1445.460, 909.233 1450.016 C 904.136 1454.572, 900.086 1458.418, 900.233 1458.563 C 900.380 1458.708, 928.391 1474.150, 962.480 1492.878 C 1004.700 1516.074, 1024.668 1526.543, 1025.114 1525.715 C 1025.876 1524.302, 1111.928 1367.407, 1181.136 1241.248 C 1207.461 1193.259, 1228.997 1153.659, 1228.993 1153.248 C 1228.987 1152.670, 1167.721 1118.476, 1131.352 1098.752 L 1126.204 1095.960 1127.056 1099.755 M 746.593 1134.234 C 740.648 1145.930, 728.439 1170.125, 719.463 1188 C 709.354 1208.130, 701.901 1221.764, 699.882 1223.822 C 693.838 1229.981, 696.208 1229.593, 653 1231.495 C 647.225 1231.749, 635.975 1232.198, 628 1232.493 C 620.025 1232.788, 608.775 1233.241, 603 1233.501 C 597.225 1233.761, 585.975 1234.213, 578 1234.506 C 570.025 1234.798, 559.225 1235.244, 554 1235.496 C 548.775 1235.747, 538.200 1236.194, 530.500 1236.488 C 512.526 1237.173, 470.976 1238.826, 455.500 1239.470 C 448.900 1239.745, 437.200 1240.210, 429.500 1240.504 C 421.800 1240.798, 411.900 1241.244, 407.500 1241.494 C 403.100 1241.745, 390.275 1242.237, 379 1242.589 C 367.725 1242.940, 356.913 1243.514, 354.972 1243.864 L 351.444 1244.500 376.972 1310.174 C 391.013 1346.295, 402.796 1376.140, 403.157 1376.498 C 403.518 1376.855, 423.318 1369.526, 447.157 1360.210 C 470.996 1350.894, 560.025 1316.141, 645 1282.980 C 729.975 1249.818, 799.671 1222.548, 799.880 1222.380 C 800.213 1222.111, 759.768 1117.520, 758.060 1114.234 C 757.682 1113.505, 752.813 1121.997, 746.593 1134.234 M 938.630 1149.685 C 937.006 1163.830, 935.485 1176.639, 930.934 1214.500 C 925.866 1256.650, 924.378 1263.216, 919 1267.142 C 916.619 1268.881, 900.898 1275.456, 813 1311.480 C 791.825 1320.158, 755.375 1335.110, 732 1344.706 C 708.625 1354.302, 682.300 1365.106, 673.500 1368.715 C 664.700 1372.323, 652.325 1377.399, 646 1379.995 C 639.675 1382.590, 627.525 1387.564, 619 1391.048 C 610.475 1394.532, 603.354 1397.481, 603.175 1397.600 C 602.683 1397.929, 698.122 1507.006, 698.860 1506.959 C 699.212 1506.936, 718.259 1490.174, 741.186 1469.709 C 764.114 1449.244, 835.745 1385.475, 900.366 1328 C 964.988 1270.525, 1017.891 1223.242, 1017.930 1222.926 C 1017.998 1222.372, 948.645 1143.394, 943.077 1137.685 L 940.331 1134.870 938.630 1149.685" stroke="none" fill="#24559a" fill-rule="evenodd"/></svg>
